<svg id="visual" viewBox="0 0 900 600" width="900" height="600" xmlns="http://www.w3.org/2000/svg" xmlns:xlink="http://www.w3.org/1999/xlink" version="1.1"><rect x="0" y="0" width="900" height="600" fill="#002233"></rect><path d="M0 466L21.5 438.5C43 411 86 356 128.8 365.2C171.7 374.3 214.3 447.7 257.2 483C300 518.3 343 515.7 385.8 503C428.7 490.3 471.3 467.7 514.2 478C557 488.3 600 531.7 642.8 546.2C685.7 560.7 728.3 546.3 771.2 531.7C814 517 857 502 878.5 494.5L900 487L900 601L878.5 601C857 601 814 601 771.2 601C728.3 601 685.7 601 642.8 601C600 601 557 601 514.2 601C471.3 601 428.7 601 385.8 601C343 601 300 601 257.2 601C214.3 601 171.7 601 128.8 601C86 601 43 601 21.5 601L0 601Z" fill="#0066FF" stroke-linecap="round" stroke-linejoin="miter"></path></svg>